<svg width="184" height="210" viewBox="0 0 184 210" fill="none" xmlns="http://www.w3.org/2000/svg">
<g clip-path="url(#clip0_3742_45795)">
<rect x="8" y="3" width="169.588" height="169.588" rx="32" fill="url(#paint0_linear_3742_45795)"/>
<g clip-path="url(#clip1_3742_45795)">
<path d="M53.763 84.869C57.5296 82.4715 61.26 79.9008 61.3593 74.8414C61.4316 71.2588 63.4729 69.1166 66.1285 67.7127C67.3947 67.0947 68.5207 66.2194 69.4362 65.1418C70.3517 64.0641 71.0368 62.8073 71.4486 61.45C73.1738 56.4545 74.7184 54.7863 80.0475 55.4153C88.4567 56.3998 96.9292 56.4454 105.338 57.3661C109.529 57.831 113.63 58.6059 117.749 59.4081C122.988 60.4382 125.643 64.276 124.885 69.7547C124.189 74.6955 123.981 79.6729 122.085 84.3402C121.92 84.8427 121.72 85.3331 121.488 85.8079C121.317 86.1087 121.001 86.5007 120.712 86.5372C120.097 86.601 120.143 85.9993 120.016 85.6256C119.389 83.6255 118.898 81.585 118.544 79.5179C117.821 74.4403 114.38 72.5168 110.415 70.9215C107.419 69.5535 104.243 68.6322 100.985 68.1867C100.467 68.1144 99.945 68.0688 99.4222 68.05C98.9976 68.05 98.4015 67.8859 98.275 68.4602C98.1124 69.1713 98.7357 69.2807 99.2505 69.3718C102.097 70.0485 104.883 70.9633 107.578 72.1066C112.447 74.2397 115.166 78.0684 116.042 83.3101C116.815 88.3455 116.053 93.4993 113.856 98.0871C113.577 98.9217 113.035 99.641 112.312 100.135C111.589 100.629 110.726 100.87 109.855 100.822C107.958 100.749 107.452 99.1537 107.317 97.604C106.946 93.6385 104.715 91.004 101.689 88.7341C96.5299 84.891 90.6324 82.1773 84.3741 80.7668C83.9423 80.6397 83.5173 80.4906 83.1005 80.3201C82.2785 80.0284 81.1043 79.3629 80.7611 80.3201C80.4178 81.2773 81.863 81.6601 82.6127 81.9245C87.24 83.6869 91.7118 85.8399 95.9808 88.3604C100.903 91.1863 103.396 95.5529 103.812 101.123C104.11 105.17 101.825 107.395 96.8027 107.96C92.2865 108.461 87.9419 108.014 83.9766 105.526C83.2614 105.107 82.6203 104.571 82.0798 103.94C79.8036 101.095 77.0487 101.205 75.4681 104.423C74.5016 106.364 73.0925 105.863 71.6473 105.435C70.8163 105.188 69.895 104.414 69.2989 105.599C68.7027 106.784 69.7776 107.267 70.446 107.796C72.5957 109.5 75.17 109.509 77.5455 108.78C78.4237 108.486 79.3545 108.386 80.2743 108.488C81.1941 108.591 82.0811 108.892 82.8747 109.373C87.9762 112.083 93.8626 112.887 99.4944 111.643C102.43 111.068 104.769 109.199 107.055 107.322C107.645 106.742 108.334 106.273 109.087 105.936C113.82 104.468 116.34 100.822 117.984 96.4462C118.289 95.6521 118.755 94.9312 119.353 94.3303C119.951 93.7295 120.667 93.2618 121.456 92.9577C122.244 92.6536 123.087 92.5197 123.929 92.5648C124.772 92.6098 125.596 92.8327 126.348 93.2192C131.767 96.3368 136.428 94.2402 140.908 91.004C141.369 90.6667 141.649 90.0012 142.507 90.1744C142.751 91.396 141.974 92.3258 141.441 93.2465C138.686 98.0233 135.209 102.299 132.065 106.802C130.133 109.537 128.326 112.427 126.429 115.216C123.403 119.692 119.131 122.746 114.633 125.535C112.14 127.076 109.629 128.589 107.064 130.011C102.457 132.573 99.6299 136.657 97.2905 141.215C94.9644 146.024 92.9754 150.992 91.3381 156.083C89.1342 162.464 86.7225 168.845 85.4399 175.536C85.0886 176.851 84.6169 178.13 84.0308 179.356C83.4618 180.842 82.0979 180.568 80.9327 180.568C69.8047 180.568 58.6646 180.568 47.5126 180.568C44.8841 180.568 42.2466 180.568 39.6182 180.568C38.8866 180.568 38.0285 180.696 37.6581 179.812C37.3691 179.082 37.8298 178.463 38.2091 177.925C42.8253 171.524 46.9041 164.746 50.403 157.66C53.8805 150.367 57.1141 142.892 58.5864 134.87C60.148 126.532 59.0309 117.909 55.3979 110.257C54.0611 107.367 52.2546 104.277 53.1127 101.013C53.8985 97.9868 53.7269 95.0424 53.7359 92.0523C53.7359 90.1015 53.3927 88.1507 53.2121 86.1999C53.4288 85.7897 53.2843 85.2062 53.763 84.869Z" fill="white"/>
<path d="M148.54 72.3436C148.875 75.5251 147.565 78.0138 145.686 80.2837C143.166 83.3284 140.98 86.6648 137.665 89.0167C136.5 89.8518 135.177 90.4344 133.777 90.7277C132.378 91.0211 130.934 91.019 129.536 90.7214C127.522 90.4024 126.33 88.2419 126.582 85.7623C126.926 82.3074 127.314 78.8707 127.784 75.434C128.823 68.4056 136.401 62.8266 143.274 64.0208C145.776 64.4492 148.251 67.339 148.504 70.1649C148.595 70.9124 148.54 71.6508 148.54 72.3436Z" fill="white"/>
<path d="M93.7139 53.7288C97.2636 51.6504 100.723 52.0241 103.993 51.7689C110.342 51.37 116.715 51.7835 122.961 52.9995C124.923 53.4352 126.833 54.08 128.66 54.923C130.828 55.8346 132.273 59.2896 131.704 62.1611C131.452 63.4373 131.587 64.9506 130.214 65.8075C129.175 66.4547 128.408 66.6097 128.218 65.0053C127.721 61.6597 125.508 59.8912 122.699 58.223C117.243 54.9959 111.21 55.6249 105.339 54.9048C101.662 54.4581 97.9501 54.1573 93.7139 53.7288Z" fill="white"/>
</g>
</g>
<rect x="29.333" y="158.5" width="124" height="51" rx="25.5" fill="white"/>
<rect x="29.333" y="158.5" width="124" height="51" rx="25.5" stroke="#D1D1D1"/>
<path d="M44.973 191L50.313 176.86H53.053L58.373 191H56.093L55.053 188.16H48.293L47.253 191H44.973ZM48.993 186.26H54.353L51.673 178.88L48.993 186.26ZM64.3449 191.12C63.2382 191.12 62.3115 190.893 61.5649 190.44C60.8315 189.987 60.2782 189.36 59.9049 188.56C59.5449 187.747 59.3649 186.813 59.3649 185.76C59.3649 184.72 59.5515 183.793 59.9249 182.98C60.3115 182.153 60.8849 181.507 61.6449 181.04C62.4182 180.56 63.3715 180.32 64.5049 180.32C65.2782 180.32 65.9649 180.453 66.5649 180.72C67.1649 180.973 67.6515 181.353 68.0249 181.86C68.4115 182.353 68.6649 182.973 68.7849 183.72H66.7249C66.5515 183.173 66.2582 182.78 65.8449 182.54C65.4449 182.3 64.9715 182.18 64.4249 182.18C63.6915 182.18 63.1049 182.353 62.6649 182.7C62.2382 183.047 61.9249 183.493 61.7249 184.04C61.5249 184.587 61.4249 185.16 61.4249 185.76C61.4249 186.387 61.5249 186.967 61.7249 187.5C61.9382 188.033 62.2582 188.467 62.6849 188.8C63.1249 189.12 63.6982 189.28 64.4049 189.28C64.9382 189.28 65.4315 189.167 65.8849 188.94C66.3382 188.7 66.6315 188.3 66.7649 187.74H68.8849C68.7649 188.513 68.4849 189.153 68.0449 189.66C67.6049 190.153 67.0582 190.52 66.4049 190.76C65.7649 191 65.0782 191.12 64.3449 191.12ZM70.8782 191V176.86H72.9382V181.94C73.2182 181.58 73.5382 181.28 73.8982 181.04C74.2715 180.8 74.6715 180.62 75.0982 180.5C75.5248 180.38 75.9515 180.32 76.3782 180.32C77.3915 180.32 78.1848 180.54 78.7582 180.98C79.3315 181.407 79.7382 181.987 79.9782 182.72C80.2182 183.453 80.3382 184.28 80.3382 185.2V191H78.2582V185.68C78.2582 185.253 78.2248 184.833 78.1582 184.42C78.1048 184.007 77.9982 183.633 77.8382 183.3C77.6782 182.953 77.4315 182.68 77.0982 182.48C76.7782 182.267 76.3448 182.16 75.7982 182.16C75.2782 182.16 74.8315 182.273 74.4582 182.5C74.0982 182.727 73.8048 183.033 73.5782 183.42C73.3648 183.793 73.2048 184.207 73.0982 184.66C72.9915 185.1 72.9382 185.54 72.9382 185.98V191H70.8782ZM82.7922 191V180.46H84.8522V191H82.7922ZM83.8122 179.06C83.4122 179.06 83.0856 178.94 82.8322 178.7C82.5922 178.447 82.4722 178.127 82.4722 177.74C82.4722 177.353 82.5989 177.04 82.8522 176.8C83.1056 176.547 83.4256 176.42 83.8122 176.42C84.1722 176.42 84.4856 176.547 84.7522 176.8C85.0322 177.04 85.1722 177.353 85.1722 177.74C85.1722 178.127 85.0389 178.447 84.7722 178.7C84.5189 178.94 84.1989 179.06 83.8122 179.06ZM92.0416 191.12C90.9349 191.12 90.0083 190.893 89.2616 190.44C88.5149 189.987 87.9483 189.36 87.5616 188.56C87.1883 187.747 87.0016 186.813 87.0016 185.76C87.0016 184.693 87.1949 183.753 87.5816 182.94C87.9816 182.127 88.5549 181.487 89.3016 181.02C90.0616 180.553 90.9749 180.32 92.0416 180.32C92.8549 180.32 93.5616 180.473 94.1616 180.78C94.7616 181.073 95.2549 181.473 95.6416 181.98C96.0416 182.487 96.3349 183.053 96.5216 183.68C96.7083 184.293 96.7883 184.933 96.7616 185.6C96.7616 185.747 96.7549 185.887 96.7416 186.02C96.7283 186.153 96.7149 186.293 96.7016 186.44H89.0816C89.1216 186.973 89.2549 187.46 89.4816 187.9C89.7216 188.34 90.0549 188.693 90.4816 188.96C90.9083 189.213 91.4349 189.34 92.0616 189.34C92.4083 189.34 92.7416 189.3 93.0616 189.22C93.3949 189.127 93.6883 188.987 93.9416 188.8C94.2083 188.6 94.3949 188.347 94.5016 188.04H96.5816C96.4083 188.747 96.0949 189.333 95.6416 189.8C95.2016 190.253 94.6616 190.587 94.0216 190.8C93.3949 191.013 92.7349 191.12 92.0416 191.12ZM89.1216 184.8H94.7216C94.7083 184.28 94.5883 183.82 94.3616 183.42C94.1349 183.007 93.8216 182.687 93.4216 182.46C93.0216 182.22 92.5416 182.1 91.9816 182.1C91.3683 182.1 90.8549 182.227 90.4416 182.48C90.0416 182.733 89.7283 183.067 89.5016 183.48C89.2883 183.88 89.1616 184.32 89.1216 184.8ZM101.666 191L97.726 180.46H100.026L103.066 189.14L106.086 180.46H108.406L104.466 191H101.666ZM109.745 191V180.46H111.805V191H109.745ZM110.765 179.06C110.365 179.06 110.039 178.94 109.785 178.7C109.545 178.447 109.425 178.127 109.425 177.74C109.425 177.353 109.552 177.04 109.805 176.8C110.059 176.547 110.379 176.42 110.765 176.42C111.125 176.42 111.439 176.547 111.705 176.8C111.985 177.04 112.125 177.353 112.125 177.74C112.125 178.127 111.992 178.447 111.725 178.7C111.472 178.94 111.152 179.06 110.765 179.06ZM114.355 191V180.46H116.315L116.415 181.94C116.681 181.553 117.001 181.247 117.375 181.02C117.748 180.78 118.148 180.607 118.575 180.5C119.001 180.38 119.415 180.32 119.815 180.32C120.828 180.32 121.621 180.54 122.195 180.98C122.781 181.407 123.195 181.987 123.435 182.72C123.688 183.44 123.815 184.26 123.815 185.18V191H121.735V185.6C121.735 185.173 121.708 184.753 121.655 184.34C121.601 183.927 121.488 183.56 121.315 183.24C121.155 182.907 120.921 182.647 120.615 182.46C120.308 182.26 119.895 182.16 119.375 182.16C118.735 182.16 118.195 182.333 117.755 182.68C117.315 183.027 116.981 183.493 116.755 184.08C116.528 184.667 116.415 185.327 116.415 186.06V191H114.355ZM131.009 195.78C130.262 195.78 129.569 195.66 128.929 195.42C128.289 195.193 127.742 194.827 127.289 194.32C126.849 193.827 126.549 193.193 126.389 192.42H128.529C128.622 192.78 128.802 193.067 129.069 193.28C129.335 193.507 129.649 193.667 130.009 193.76C130.369 193.853 130.729 193.9 131.089 193.9C131.769 193.9 132.315 193.76 132.729 193.48C133.142 193.2 133.435 192.82 133.609 192.34C133.795 191.873 133.889 191.34 133.889 190.74V189.52C133.662 189.907 133.362 190.22 132.989 190.46C132.615 190.7 132.215 190.873 131.789 190.98C131.375 191.073 130.949 191.12 130.509 191.12C129.429 191.12 128.549 190.88 127.869 190.4C127.189 189.92 126.682 189.28 126.349 188.48C126.029 187.667 125.869 186.767 125.869 185.78C125.869 184.767 126.035 183.847 126.369 183.02C126.715 182.193 127.242 181.54 127.949 181.06C128.655 180.567 129.549 180.32 130.629 180.32C131.255 180.32 131.862 180.433 132.449 180.66C133.035 180.873 133.522 181.22 133.909 181.7L134.029 180.46H135.969V190.5C135.969 191.58 135.795 192.513 135.449 193.3C135.102 194.1 134.562 194.713 133.829 195.14C133.095 195.567 132.155 195.78 131.009 195.78ZM130.889 189.28C131.555 189.28 132.109 189.12 132.549 188.8C133.002 188.467 133.342 188.027 133.569 187.48C133.795 186.933 133.909 186.333 133.909 185.68C133.909 185.013 133.795 184.42 133.569 183.9C133.342 183.367 133.009 182.947 132.569 182.64C132.129 182.333 131.562 182.18 130.869 182.18C130.149 182.18 129.575 182.347 129.149 182.68C128.722 183 128.409 183.433 128.209 183.98C128.022 184.513 127.929 185.107 127.929 185.76C127.929 186.427 128.029 187.027 128.229 187.56C128.429 188.093 128.742 188.513 129.169 188.82C129.609 189.127 130.182 189.28 130.889 189.28Z" fill="#4A4A4A"/>
<defs>
<linearGradient id="paint0_linear_3742_45795" x1="8" y1="87.7942" x2="177.588" y2="87.7942" gradientUnits="userSpaceOnUse">
<stop stop-color="#213679"/>
<stop offset="1" stop-color="#0A7AC0"/>
</linearGradient>
<clipPath id="clip0_3742_45795">
<rect x="8" y="3" width="169.588" height="169.588" rx="32" fill="white"/>
</clipPath>
<clipPath id="clip1_3742_45795">
<rect width="111" height="129" fill="white" transform="translate(37.5947 51.5957)"/>
</clipPath>
</defs>
</svg>
