<svg width="183" height="210" viewBox="0 0 183 210" fill="none" xmlns="http://www.w3.org/2000/svg">
<g clip-path="url(#clip0_3742_45776)">
<rect x="7" y="3" width="169.588" height="169.588" rx="32" fill="url(#paint0_linear_3742_45776)"/>
<g clip-path="url(#clip1_3742_45776)">
<path d="M15.5403 108.418C17.0805 106.336 26.8317 108.129 32.4668 108.739C32.8707 108.855 33.2824 108.941 33.6987 108.996C34.77 108.996 36.3234 110.582 36.8591 108.536C37.3197 106.8 35.6592 106.104 34.3844 105.825C30.6241 105.011 26.821 104.358 23.0179 103.779C21.7859 103.597 20.6182 103.447 20.1897 102.194C19.7612 100.94 20.5754 99.9546 21.411 99.1297C22.7215 97.8724 24.4588 97.1568 26.2747 97.1264C30.3563 96.9657 34.4594 96.6015 38.541 97.4264C39.7087 97.6621 41.3907 98.1227 41.6585 96.3551C41.8942 94.8124 40.1051 94.7695 39.1195 94.5874C36.6448 94.1268 34.1273 93.9446 31.6204 93.6875C30.4849 93.5697 29.1565 93.7947 28.8565 92.2413C28.6618 91.5773 28.659 90.8718 28.8486 90.2063C29.0382 89.5408 29.4124 88.9427 29.9278 88.481C30.6042 87.8933 31.3992 87.4581 32.2588 87.2049C33.1183 86.9516 34.0223 86.8863 34.9093 87.0133C40.5229 87.6668 46.1151 88.481 51.6965 89.3595C53.7758 89.68 55.7564 90.4634 57.4922 91.6521C61.9703 94.6624 66.7483 97.1157 72.244 97.6299C76.7756 98.0477 79.9895 100.705 83.032 103.576C85.4959 105.857 87.6385 108.482 90.4668 110.378C93.295 112.275 93.0593 115.242 92.3094 117.792C90.9575 122.827 90.2095 128.006 90.0811 133.218C89.7811 138.886 89.9204 144.585 89.974 150.263C89.974 152.17 89.3419 152.952 87.4028 153.477C83.2569 154.548 79.2503 153.187 75.1794 153.209C66.7911 153.262 59.1099 149.813 51.6108 146.91C43.5333 143.814 36.1949 138.961 29.285 133.636C25.2141 130.508 20.2433 129.287 15.6153 127.326C13.5691 126.448 11.5443 125.323 11.8979 122.87C12.2942 120.138 14.7475 119.388 17.1579 119.249C21.6704 118.917 26.1938 119.724 30.3134 121.595C31.2776 122.045 32.6917 123.095 33.3452 121.723C33.9023 120.566 32.3489 119.827 31.449 119.184C27.6352 116.463 23.0929 115.917 18.647 115.317C17.9305 115.304 17.2261 115.13 16.5862 114.807C15.9463 114.484 15.2826 114.153 14.9511 113.453C14.5 112.5 14 110.5 15.5403 108.418Z" fill="white"/>
<path d="M176.782 -0.533221C177.713 2.06942 178.066 4.84375 177.816 7.59673C177.567 10.3497 176.72 13.0152 175.335 15.4077C172.346 20.6999 169.668 26.1743 166.669 31.4772C164.772 34.7982 164.376 34.7875 161.655 32.27C159.079 30.0582 155.908 28.6569 152.538 28.2419C145.628 27.117 139.008 24.1816 131.798 24.878C130.212 25.028 129.73 24.1709 130.137 22.7354C131.942 15.7287 132.955 8.54184 133.158 1.30941C133.255 -0.426091 134.305 -1.78664 135.108 -3.24361L136.179 -3.36145C137.026 -2.45085 138.151 -2.83651 139.147 -2.83651C145.575 -2.83651 151.938 -2.76152 158.323 -2.83651C161.344 -2.83651 164.387 -2.37586 167.376 -3.20076L172.818 -3.00792C173.049 -2.51127 173.451 -2.11396 173.95 -1.88795C174.449 -1.66195 175.013 -1.62221 175.539 -1.77593L176.782 -0.533221Z" fill="white"/>
<path d="M118.942 138.104C118.096 140.825 117.11 143.16 117.153 145.838C117.228 151.42 117.153 157.001 117.153 162.583C117.153 165.486 116.211 166.15 113.457 165.315C111.871 164.888 110.458 163.976 109.417 162.706C108.376 161.436 107.758 159.872 107.651 158.233C106.869 151.259 105.605 144.306 106.955 137.257C106.986 137.048 106.986 136.835 106.955 136.625C106.858 135.629 107.276 134.161 105.883 134.033C104.491 133.904 104.223 135.211 103.966 136.443C103.151 140.289 103.312 144.167 103.291 148.056C103.291 150.788 103.291 153.53 103.291 156.262C103.291 157.944 103.987 160.258 101.384 160.547C100.231 160.77 99.0359 160.562 98.0266 159.961C97.0173 159.361 96.2638 158.41 95.9094 157.291C94.6663 153.499 93.9454 149.556 93.7668 145.571C93.3705 136.786 95.031 128.43 97.12 119.859C98.6248 113.27 101.209 106.975 104.769 101.229C106.112 98.958 107.8 96.9089 109.772 95.1552C113.854 91.7378 115.611 87.1526 116.521 82.1282C117.71 75.5826 118.385 74.522 125.874 74.1899C131.002 73.9715 136 74.5001 141 75.9997C143 76.4999 146.143 76.8789 147.16 79.2464C148.007 81.2176 147.46 83.7994 147.46 86.1134C147.404 93.5697 149.248 100.917 152.817 107.464C155.848 113.024 158.259 118.799 158.387 125.312C158.466 126.155 158.307 127.004 157.929 127.761C157.55 128.519 156.967 129.155 156.245 129.597C154.702 130.61 153.405 131.954 152.447 133.531C151.489 135.108 150.894 136.879 150.706 138.714C149.635 146.385 148.649 154.077 147.492 161.736C147.213 163.501 146.728 165.227 146.046 166.879C145.178 169.021 143.796 170.885 141.097 170.339C138.601 169.835 137.69 167.875 137.326 165.507C136.314 158.531 135.891 151.482 136.062 144.435C136.062 143.364 136.522 141.682 134.99 141.596C133.458 141.51 133.33 143.224 133.116 144.435C131.905 151.216 132.591 158.073 132.473 164.897C132.473 167.039 132.044 168.903 129.966 169.46C127.888 170.018 125.681 170.36 123.774 168.453C120.731 165.379 120.699 161.383 120.453 157.58C120.142 152.652 120.356 147.681 120.335 142.732C120.424 141.906 120.346 141.072 120.107 140.277C119.868 139.482 119.472 138.743 118.942 138.104Z" fill="white"/>
<path d="M65.5487 90.6557C59.9565 86.4884 53.5394 84.4422 46.7796 83.1245C45.0333 82.7924 44.637 81.7318 44.487 80.2534C43.6942 69.6904 41.873 59.256 40.1161 48.8215C39.8239 46.6255 39.9917 44.3928 40.6089 42.2652C42.5908 34.3054 44.8941 26.4635 49.3078 19.4358C50.8291 17.0361 52.6181 15.2684 55.7356 15.0328C58.5103 14.8292 59.8815 16.1041 59.2602 18.8037C59.1423 19.318 59.0459 19.875 58.9281 20.3464C58.6709 21.5355 56.6462 22.9282 58.4031 23.7638C59.7101 24.3959 60.31 22.1569 61.0171 21.107C62.9561 18.2359 65.2273 16.1362 69.009 16.6076C71.9657 16.9825 72.7478 18.3216 71.6872 21.1284C71.2059 22.4013 70.7946 23.6995 70.4552 25.0173C70.3374 25.4672 70.2838 26.0886 70.9052 26.3778C71.5265 26.6671 71.9122 26.1207 72.1907 25.7243C73.262 24.2781 74.2047 22.7675 75.2332 21.3106C77.3758 18.1717 83.2679 18.3752 85.132 21.6427C86.2033 23.421 84.757 24.6744 84.0607 25.9279C82.9894 27.6741 81.9181 29.281 82.9251 31.6807C84.618 30.4197 85.9333 28.7191 86.7282 26.7635C88.6244 23.1425 94.2273 23.1961 96.3699 27.5884C96.6269 27.9877 96.7635 28.4526 96.7635 28.9275C96.7635 29.4024 96.6269 29.8673 96.3699 30.2666C91.5276 37.4443 90.0599 45.6398 90.1135 53.9745C90.189 64.5097 88.2216 77.0789 80.4183 84.8172L78.5864 87.399L77.3008 89.2631C75.7939 92.1157 72.7583 96.0281 65.5487 90.6557Z" fill="white"/>
<path d="M94.1843 59.7595C95.0949 55.0565 94.0022 50.1178 94.9771 45.3077C95.74 41.8261 96.7058 38.3921 97.8696 35.0232C98.6837 32.5164 100.901 32.1521 102.926 31.9593C111.4 31.1987 119.66 29.2382 128.005 27.8134C132.153 27.0519 136.425 27.3055 140.454 28.5526C146.646 30.5238 153.17 31.4344 159.041 34.4447C160.002 34.8746 160.87 35.4907 161.592 36.2574C162.315 37.0241 162.879 37.9264 163.251 38.912C163.808 40.4868 164.119 42.1259 162.897 43.3365C161.676 44.5471 160.176 43.3365 159.126 42.7687C156.416 41.1725 153.331 40.9796 150.438 40.0905C150.027 39.9567 149.584 39.9506 149.169 40.073C148.755 40.1954 148.386 40.4405 148.113 40.7761C151.424 43.0044 155.034 43.99 158.505 45.2863C163.861 47.236 163.915 49.8928 163.861 53.6638C163.861 54.3602 164.097 55.2601 163.176 55.5707C162.49 55.7957 162.104 55.1529 161.537 54.8101C156.48 51.5962 151.059 49.6036 144.396 50.1178C147.61 52.9568 151.392 53.246 154.573 54.853C157.755 56.4599 161.633 57.4884 162.383 61.87C162.566 62.5685 162.624 63.2938 162.554 64.0126C162.179 65.7374 161.655 67.2265 159.491 65.3624C156.052 62.5235 151.766 61.6878 147.481 60.8737C146.646 60.713 145.339 60.3916 145.049 61.6343C144.76 62.877 146.003 63.177 146.817 63.4769C150.031 64.6446 153.309 65.6195 156.137 67.8692C159.501 70.5046 158.741 75.9683 155.88 78.4108C154.948 79.2036 153.309 80.0821 152.666 78.4108C150.759 73.1186 145.96 72.7115 141.675 71.7688C136.576 70.6975 131.348 70.0547 126.162 69.3476C123.876 68.9349 121.528 69.0116 119.274 69.5726C114.925 70.8367 112.589 73.8578 112.139 78.8929C112.139 79.5143 112.139 80.1463 112.139 80.7784C111.903 85.0691 92.1853 69.9991 94.1843 59.7595Z" fill="white"/>
<path d="M3.99215 32.902C3.99215 26.9135 4.06714 20.9142 3.99215 14.9257C3.99215 12.5688 4.88133 11.8725 7.0025 12.3545C17.8226 14.8185 29.212 17.3535 40 19.9996C44.4352 21.0709 44.2852 21.4351 42.6033 25.5489C39.3037 33.5194 35.7454 41.4724 37.3738 50.3749C37.7808 52.5925 36.206 53.2996 34.2563 53.2996C25.5285 53.2996 15.5 53.9996 6.93822 54.3923C4.80634 54.0173 3.8636 53.2246 3.92788 50.8892C4.11 44.9006 3.99215 38.9013 3.99215 32.902Z" fill="white"/>
<path d="M3.98145 155.298V154.666C3.98145 142.603 3.98145 142.539 12.2411 134.311C15.1551 131.408 18.6046 133.154 21.6686 134.311C24.9681 135.511 27.475 137.964 30.0889 140.3C33.1013 142.92 36.4261 145.159 39.9877 146.963C44.1444 149.106 44.5407 150.477 42.516 154.719C40.5769 158.769 37.7594 162.54 36.9238 166.943C35.649 173.574 31.3424 173.928 26.0073 173.596C21.1865 173.306 16.3656 173.596 11.4805 173.499C9.51189 173.5 7.62212 172.726 6.21911 171.345C4.8161 169.964 4.01238 168.086 3.98145 166.118C3.98145 165.915 3.98145 165.7 3.98145 165.486V155.384V155.298Z" fill="white"/>
<path d="M177.874 151.934C177.874 156.562 177.874 161.19 177.874 165.861C177.874 170.275 176.449 171.346 172.367 170.146C167.364 168.711 162.351 167.307 157.369 165.861C153.405 164.725 152.827 163.986 153.255 160.022C154.07 152.652 154.927 145.271 155.869 137.911C156.266 134.697 159.855 132.383 162.994 132.736C166.839 133.154 170.718 133.422 174.574 133.593C176.974 133.701 177.97 134.783 177.949 137.129C177.949 142.078 177.949 147.017 177.949 151.955L177.874 151.934Z" fill="white"/>
</g>
</g>
<rect x="26.5" y="158.5" width="129" height="51" rx="25.5" fill="white"/>
<rect x="26.5" y="158.5" width="129" height="51" rx="25.5" stroke="#D1D1D1"/>
<path d="M46.72 191V178.8H42.24V176.86H53.3V178.8H48.84V191H46.72ZM58.4664 191.12C57.3597 191.12 56.4331 190.893 55.6864 190.44C54.9397 189.987 54.3731 189.36 53.9864 188.56C53.6131 187.747 53.4264 186.813 53.4264 185.76C53.4264 184.693 53.6197 183.753 54.0064 182.94C54.4064 182.127 54.9797 181.487 55.7264 181.02C56.4864 180.553 57.3997 180.32 58.4664 180.32C59.2797 180.32 59.9864 180.473 60.5864 180.78C61.1864 181.073 61.6797 181.473 62.0664 181.98C62.4664 182.487 62.7597 183.053 62.9464 183.68C63.1331 184.293 63.2131 184.933 63.1864 185.6C63.1864 185.747 63.1797 185.887 63.1664 186.02C63.1531 186.153 63.1397 186.293 63.1264 186.44H55.5064C55.5464 186.973 55.6797 187.46 55.9064 187.9C56.1464 188.34 56.4797 188.693 56.9064 188.96C57.3331 189.213 57.8597 189.34 58.4864 189.34C58.8331 189.34 59.1664 189.3 59.4864 189.22C59.8197 189.127 60.1131 188.987 60.3664 188.8C60.6331 188.6 60.8197 188.347 60.9264 188.04H63.0064C62.8331 188.747 62.5197 189.333 62.0664 189.8C61.6264 190.253 61.0864 190.587 60.4464 190.8C59.8197 191.013 59.1597 191.12 58.4664 191.12ZM55.5464 184.8H61.1464C61.1331 184.28 61.0131 183.82 60.7864 183.42C60.5597 183.007 60.2464 182.687 59.8464 182.46C59.4464 182.22 58.9664 182.1 58.4064 182.1C57.7931 182.1 57.2797 182.227 56.8664 182.48C56.4664 182.733 56.1531 183.067 55.9264 183.48C55.7131 183.88 55.5864 184.32 55.5464 184.8ZM68.6708 191.12C68.1908 191.12 67.7241 191.06 67.2708 190.94C66.8308 190.807 66.4374 190.613 66.0908 190.36C65.7441 190.093 65.4641 189.767 65.2508 189.38C65.0508 188.98 64.9508 188.513 64.9508 187.98C64.9508 187.34 65.0708 186.813 65.3108 186.4C65.5641 185.973 65.8974 185.647 66.3108 185.42C66.7241 185.18 67.1974 185.013 67.7308 184.92C68.2774 184.813 68.8441 184.76 69.4308 184.76H72.0108C72.0108 184.24 71.9308 183.787 71.7708 183.4C71.6108 183 71.3574 182.693 71.0108 182.48C70.6774 182.253 70.2308 182.14 69.6708 182.14C69.3374 182.14 69.0174 182.18 68.7108 182.26C68.4174 182.327 68.1641 182.44 67.9508 182.6C67.7374 182.76 67.5908 182.973 67.5108 183.24H65.3508C65.4308 182.733 65.6108 182.3 65.8908 181.94C66.1708 181.567 66.5174 181.26 66.9308 181.02C67.3441 180.78 67.7841 180.607 68.2508 180.5C68.7308 180.38 69.2174 180.32 69.7108 180.32C71.2308 180.32 72.3241 180.767 72.9908 181.66C73.6708 182.54 74.0108 183.753 74.0108 185.3V191H72.2308L72.1508 189.66C71.8441 190.073 71.4774 190.387 71.0508 190.6C70.6374 190.813 70.2241 190.953 69.8108 191.02C69.3974 191.087 69.0174 191.12 68.6708 191.12ZM68.9908 189.38C69.5908 189.38 70.1174 189.28 70.5708 189.08C71.0241 188.867 71.3774 188.567 71.6308 188.18C71.8841 187.78 72.0108 187.313 72.0108 186.78V186.34H70.1308C69.7441 186.34 69.3641 186.353 68.9908 186.38C68.6308 186.393 68.2974 186.447 67.9908 186.54C67.6974 186.62 67.4574 186.76 67.2708 186.96C67.0974 187.16 67.0108 187.447 67.0108 187.82C67.0108 188.18 67.1041 188.473 67.2908 188.7C67.4774 188.927 67.7241 189.1 68.0308 189.22C68.3374 189.327 68.6574 189.38 68.9908 189.38ZM76.4827 191V180.46H78.4227L78.5427 181.7C78.7827 181.353 79.0493 181.087 79.3427 180.9C79.6493 180.7 79.976 180.553 80.3227 180.46C80.6693 180.367 81.0227 180.32 81.3827 180.32C82.0893 180.32 82.6693 180.467 83.1227 180.76C83.5893 181.053 83.9493 181.453 84.2027 181.96C84.456 181.6 84.7427 181.3 85.0627 181.06C85.3827 180.807 85.736 180.62 86.1227 180.5C86.5093 180.38 86.9227 180.32 87.3627 180.32C88.1493 180.32 88.7827 180.493 89.2627 180.84C89.756 181.173 90.1093 181.627 90.3227 182.2C90.5493 182.773 90.6627 183.433 90.6627 184.18V191H88.5827V185C88.5827 184.68 88.5693 184.36 88.5427 184.04C88.516 183.72 88.436 183.42 88.3027 183.14C88.1827 182.847 88.0027 182.613 87.7627 182.44C87.536 182.253 87.2093 182.16 86.7827 182.16C86.3693 182.16 86.0227 182.253 85.7427 182.44C85.476 182.627 85.256 182.88 85.0827 183.2C84.9227 183.507 84.8027 183.84 84.7227 184.2C84.656 184.56 84.6227 184.92 84.6227 185.28V191H82.5427V184.98C82.5427 184.673 82.5293 184.36 82.5027 184.04C82.476 183.72 82.4093 183.42 82.3027 183.14C82.196 182.847 82.016 182.613 81.7627 182.44C81.5227 182.253 81.196 182.16 80.7827 182.16C80.1827 182.16 79.716 182.333 79.3827 182.68C79.0627 183.013 78.8427 183.427 78.7227 183.92C78.6027 184.4 78.5427 184.86 78.5427 185.3V191H76.4827ZM95.2842 191L92.0042 180.46H94.3042L96.6242 188.84L99.0642 180.46H101.644L104.084 188.84L106.364 180.46H108.664L105.384 191H102.764L100.324 182.94L97.9042 191H95.2842ZM114.796 191.12C113.703 191.12 112.776 190.9 112.016 190.46C111.256 190.007 110.676 189.373 110.276 188.56C109.889 187.747 109.696 186.807 109.696 185.74C109.696 184.66 109.896 183.72 110.296 182.92C110.696 182.107 111.276 181.473 112.036 181.02C112.796 180.553 113.723 180.32 114.816 180.32C115.909 180.32 116.836 180.553 117.596 181.02C118.356 181.473 118.929 182.107 119.316 182.92C119.703 183.733 119.896 184.68 119.896 185.76C119.896 186.813 119.696 187.747 119.296 188.56C118.909 189.373 118.336 190.007 117.576 190.46C116.829 190.9 115.903 191.12 114.796 191.12ZM114.796 189.28C115.516 189.28 116.096 189.12 116.536 188.8C116.989 188.48 117.323 188.053 117.536 187.52C117.749 186.973 117.856 186.38 117.856 185.74C117.856 185.1 117.749 184.513 117.536 183.98C117.323 183.447 116.989 183.02 116.536 182.7C116.096 182.367 115.516 182.2 114.796 182.2C114.089 182.2 113.509 182.367 113.056 182.7C112.603 183.02 112.269 183.447 112.056 183.98C111.856 184.513 111.756 185.1 111.756 185.74C111.756 186.393 111.856 186.987 112.056 187.52C112.269 188.053 112.603 188.48 113.056 188.8C113.509 189.12 114.089 189.28 114.796 189.28ZM122.01 191V180.46H123.95L124.05 181.98C124.317 181.567 124.623 181.24 124.97 181C125.317 180.76 125.697 180.587 126.11 180.48C126.523 180.373 126.957 180.32 127.41 180.32C127.53 180.32 127.643 180.32 127.75 180.32C127.857 180.32 127.957 180.32 128.05 180.32V182.3H127.41C126.65 182.3 126.017 182.453 125.51 182.76C125.017 183.067 124.65 183.493 124.41 184.04C124.183 184.587 124.07 185.213 124.07 185.92V191H122.01ZM129.608 191V176.86H131.668V184.84H133.368L136.328 180.46H138.648L135.188 185.48L138.948 191H136.528L133.528 186.66H131.668V191H129.608Z" fill="#4A4A4A"/>
<defs>
<linearGradient id="paint0_linear_3742_45776" x1="7" y1="87.7942" x2="176.588" y2="87.7942" gradientUnits="userSpaceOnUse">
<stop stop-color="#213679"/>
<stop offset="1" stop-color="#0A7AC0"/>
</linearGradient>
<clipPath id="clip0_3742_45776">
<rect x="7" y="3" width="169.588" height="169.588" rx="32" fill="white"/>
</clipPath>
<clipPath id="clip1_3742_45776">
<rect width="174" height="177" fill="white" transform="translate(3.92773 -3.4043)"/>
</clipPath>
</defs>
</svg>
