<svg width="186" height="210" viewBox="0 0 186 210" fill="none" xmlns="http://www.w3.org/2000/svg">
<g clip-path="url(#clip0_3742_45802)">
<rect x="9" y="3" width="169.588" height="169.588" rx="32" fill="url(#paint0_linear_3742_45802)"/>
<g clip-path="url(#clip1_3742_45802)">
<path d="M31.0825 172.556C25.8507 172.717 20.614 172.574 15.3988 172.13C14.4509 172.084 13.5215 171.851 12.6646 171.444C11.8077 171.037 11.0404 170.464 10.4073 169.758C9.77425 169.053 9.28802 168.229 8.97688 167.334C8.66574 166.439 8.5359 165.491 8.59491 164.546C8.89289 159.896 8.53532 155.247 8.95249 150.667C9.12134 148.744 10.7503 148.169 11.9323 147.326C22.2722 139.534 31.2414 130.215 40.5781 121.333C44.8889 117.228 47.1039 111.627 48.8123 105.778C51.5934 96.0826 53.9376 86.06 62.2909 79.1205C63.2268 78.3101 64.0398 77.3684 64.7046 76.3248C66.1626 74.0201 68.3151 72.2361 70.8529 71.2293C72.4889 70.5973 73.8617 69.43 74.7465 67.9181C78.2527 61.97 84.2322 60.1161 90.7083 61.97C100.105 64.6863 109.491 67.4621 118.808 70.4362C121.917 71.4846 124.911 72.843 127.747 74.4908C131.551 76.6223 131.104 80.439 130.727 83.9682C130.091 89.5 130.032 95.0913 128.929 100.573C128.333 103.548 127.539 106.224 124.758 107.999C122.81 109.399 121.215 111.231 120.099 113.352C119.453 114.423 118.738 115.533 117.368 115.662C116.186 115.771 114.726 116.287 113.871 115.176C113.017 114.066 114.606 113.58 114.944 112.728C117.924 105.352 120.904 98.0257 120.993 89.9263C121.104 88.3588 120.698 86.7981 119.838 85.4824C118.977 84.1667 117.708 83.1683 116.225 82.6398C111.547 80.6571 106.819 78.6744 102.131 76.6916C101.078 76.2455 100.144 75.5714 99.0816 75.1055C98.2472 74.7288 97.1844 74.4413 96.5984 75.3434C96.0124 76.2455 97.0752 76.8701 97.5917 77.3261C100.525 79.4266 103.663 81.2268 106.958 82.6993C108.945 83.5618 110.792 84.5829 112.679 85.5841C113.919 86.1838 114.943 87.1517 115.61 88.3551C116.277 89.5586 116.554 90.9385 116.404 92.3056C115.898 99.5425 114.884 106.631 110.286 112.708C107.306 116.673 103.015 118.735 99.0319 121.283C97.9738 121.784 96.7789 121.92 95.6349 121.67C94.9196 121.669 94.2299 121.404 93.6982 120.927C93.1665 120.449 92.8304 119.792 92.7544 119.082C92.5558 117.407 94.0457 117.555 95.0985 117.199C98.1114 116.098 100.946 114.561 103.512 112.638C106.203 110.715 106.601 107.88 106.819 105.025C107.286 98.9179 107.236 92.8111 101.604 88.7168C98.4098 86.5187 94.9048 84.808 91.2049 83.6411C89.5661 83.076 87.9371 82.501 86.2386 81.9855C85.4142 81.7278 84.3117 81.1726 83.8349 82.2433C83.3581 83.3139 84.4805 83.8889 85.1857 84.335C87.6963 85.9207 90.4181 87.1455 93.2709 87.9733C100.224 90.0353 102.747 94.9128 102.896 101.614C102.97 102.846 102.97 104.081 102.896 105.312C102.697 107.503 102.032 109.456 99.9159 110.656C96.6282 112.529 93.4398 114.621 89.6753 115.434C86.3379 116.177 84.5898 114.234 85.6426 110.953C85.7991 110.239 86.0999 109.564 86.5267 108.97C88.5132 106.789 87.1226 104.866 86.1989 102.913C86.1077 102.679 85.9649 102.468 85.7809 102.296C85.5969 102.124 85.3765 101.996 85.1361 101.921C84.8957 101.845 84.6414 101.825 84.3921 101.861C84.1427 101.898 83.9048 101.989 83.6958 102.13C81.2056 103.246 78.4665 103.694 75.7497 103.429C75.1438 103.429 74.2896 103.111 74.0115 103.924C73.8029 104.549 74.4187 105.045 74.8756 105.292C78.8487 107.444 80.7458 111.112 82.3053 115.077C82.5236 115.75 82.8789 116.37 83.349 116.899C83.8191 117.428 84.3937 117.854 85.0368 118.15C87.361 119.033 88.7019 120.688 90.0031 122.691C91.7115 125.328 95.764 126.16 98.9425 124.763C102.064 123.463 104.956 121.669 107.504 119.449C108.102 118.821 108.892 118.409 109.749 118.278C110.607 118.147 111.484 118.305 112.242 118.725C113.68 119.347 115.236 119.648 116.801 119.608C117.853 119.676 118.903 119.447 119.83 118.947C120.758 118.447 121.526 117.697 122.046 116.782C124.519 112.926 128.363 110.12 131.611 106.869C132.366 106.115 133.29 106.69 133.876 107.116C134.74 107.761 134.015 108.445 133.498 108.95C128.333 114.106 123.397 119.459 116.811 123.028C112.153 125.556 107.872 128.738 102.826 130.622C99.5204 131.886 96.1013 132.832 92.6154 133.447C86.8942 134.438 82.4046 137.174 78.1733 140.882C69.1048 148.813 59.5892 156.337 51.0472 164.923C49.2096 166.776 47.0741 168.402 45.2763 170.296C43.2897 172.338 40.7768 172.526 38.2439 172.625C35.7111 172.725 33.0094 172.556 31.0825 172.556Z" fill="white"/>
<path d="M157.584 29.4831C157.577 31.0577 157.038 32.5838 156.055 33.8154C152.726 38.2917 148.989 42.4501 144.891 46.2371C142.142 48.8395 139.548 51.6002 137.123 54.505C133.627 58.8273 129.247 62.1583 125.124 65.7867C124.414 66.4653 123.511 66.9085 122.538 67.0558C121.566 67.2031 120.572 67.0472 119.691 66.6095C115.261 64.9044 110.613 63.7544 106.054 62.3863C105.18 62.1286 104.018 62.0195 103.869 61.0579C103.72 60.0963 104.981 60.0665 105.627 59.6204C109.153 57.2313 112.679 54.7529 116.344 52.6809C121.539 49.7564 125.79 45.672 130.707 42.4203C135.057 39.5553 138.255 35.233 142.099 31.7137C144.791 29.265 147.453 26.5784 150.91 25.1608C154.754 23.6044 157.674 25.478 157.584 29.4831Z" fill="white"/>
<path d="M138.772 105.253C137.421 104.628 135.683 103.924 134.034 103.042C131.829 101.852 132.545 99.9192 132.833 98.0257C133.16 95.8447 133.26 93.6241 133.399 91.4133C133.607 88.241 134.491 87.5371 137.58 88.2112C142.775 89.3513 146.47 95.4482 145.07 100.573C144.533 102.507 141.037 105.292 138.772 105.253Z" fill="white"/>
</g>
</g>
<rect x="0.5" y="158.5" width="185" height="51" rx="25.5" fill="white"/>
<rect x="0.5" y="158.5" width="185" height="51" rx="25.5" stroke="#D1D1D1"/>
<path d="M17.66 191V176.86H20.68L24.78 184.32L28.8 176.86H31.74V191H29.64V179.36L25.18 187.48H24.26L19.78 179.36V191H17.66ZM39.3623 191.12C38.269 191.12 37.3423 190.9 36.5823 190.46C35.8223 190.007 35.2423 189.373 34.8423 188.56C34.4557 187.747 34.2623 186.807 34.2623 185.74C34.2623 184.66 34.4623 183.72 34.8623 182.92C35.2623 182.107 35.8423 181.473 36.6023 181.02C37.3623 180.553 38.289 180.32 39.3823 180.32C40.4757 180.32 41.4023 180.553 42.1623 181.02C42.9223 181.473 43.4957 182.107 43.8823 182.92C44.269 183.733 44.4623 184.68 44.4623 185.76C44.4623 186.813 44.2623 187.747 43.8623 188.56C43.4757 189.373 42.9023 190.007 42.1423 190.46C41.3957 190.9 40.469 191.12 39.3623 191.12ZM39.3623 189.28C40.0823 189.28 40.6623 189.12 41.1023 188.8C41.5557 188.48 41.889 188.053 42.1023 187.52C42.3157 186.973 42.4223 186.38 42.4223 185.74C42.4223 185.1 42.3157 184.513 42.1023 183.98C41.889 183.447 41.5557 183.02 41.1023 182.7C40.6623 182.367 40.0823 182.2 39.3623 182.2C38.6557 182.2 38.0757 182.367 37.6223 182.7C37.169 183.02 36.8357 183.447 36.6223 183.98C36.4223 184.513 36.3223 185.1 36.3223 185.74C36.3223 186.393 36.4223 186.987 36.6223 187.52C36.8357 188.053 37.169 188.48 37.6223 188.8C38.0757 189.12 38.6557 189.28 39.3623 189.28ZM49.3564 191L45.4164 180.46H47.7164L50.7564 189.14L53.7764 180.46H56.0964L52.1564 191H49.3564ZM57.4358 191V180.46H59.4958V191H57.4358ZM58.4558 179.06C58.0558 179.06 57.7291 178.94 57.4758 178.7C57.2358 178.447 57.1158 178.127 57.1158 177.74C57.1158 177.353 57.2424 177.04 57.4958 176.8C57.7491 176.547 58.0691 176.42 58.4558 176.42C58.8158 176.42 59.1291 176.547 59.3958 176.8C59.6758 177.04 59.8158 177.353 59.8158 177.74C59.8158 178.127 59.6824 178.447 59.4158 178.7C59.1624 178.94 58.8424 179.06 58.4558 179.06ZM62.0452 191V180.46H64.0052L64.1052 181.94C64.3718 181.553 64.6918 181.247 65.0652 181.02C65.4385 180.78 65.8385 180.607 66.2652 180.5C66.6918 180.38 67.1052 180.32 67.5052 180.32C68.5185 180.32 69.3118 180.54 69.8852 180.98C70.4718 181.407 70.8852 181.987 71.1252 182.72C71.3785 183.44 71.5052 184.26 71.5052 185.18V191H69.4252V185.6C69.4252 185.173 69.3985 184.753 69.3452 184.34C69.2918 183.927 69.1785 183.56 69.0052 183.24C68.8452 182.907 68.6118 182.647 68.3052 182.46C67.9985 182.26 67.5852 182.16 67.0652 182.16C66.4252 182.16 65.8852 182.333 65.4452 182.68C65.0052 183.027 64.6718 183.493 64.4452 184.08C64.2185 184.667 64.1052 185.327 64.1052 186.06V191H62.0452ZM78.6992 195.78C77.9526 195.78 77.2592 195.66 76.6192 195.42C75.9792 195.193 75.4326 194.827 74.9792 194.32C74.5392 193.827 74.2392 193.193 74.0792 192.42H76.2192C76.3126 192.78 76.4926 193.067 76.7592 193.28C77.0259 193.507 77.3392 193.667 77.6992 193.76C78.0592 193.853 78.4192 193.9 78.7792 193.9C79.4592 193.9 80.0059 193.76 80.4192 193.48C80.8326 193.2 81.1259 192.82 81.2992 192.34C81.4859 191.873 81.5792 191.34 81.5792 190.74V189.52C81.3526 189.907 81.0526 190.22 80.6792 190.46C80.3059 190.7 79.9059 190.873 79.4792 190.98C79.0659 191.073 78.6392 191.12 78.1992 191.12C77.1192 191.12 76.2392 190.88 75.5592 190.4C74.8792 189.92 74.3726 189.28 74.0392 188.48C73.7192 187.667 73.5592 186.767 73.5592 185.78C73.5592 184.767 73.7259 183.847 74.0592 183.02C74.4059 182.193 74.9326 181.54 75.6392 181.06C76.3459 180.567 77.2392 180.32 78.3192 180.32C78.9459 180.32 79.5526 180.433 80.1392 180.66C80.7259 180.873 81.2126 181.22 81.5992 181.7L81.7192 180.46H83.6592V190.5C83.6592 191.58 83.4859 192.513 83.1392 193.3C82.7926 194.1 82.2526 194.713 81.5192 195.14C80.7859 195.567 79.8459 195.78 78.6992 195.78ZM78.5792 189.28C79.2459 189.28 79.7992 189.12 80.2392 188.8C80.6926 188.467 81.0326 188.027 81.2592 187.48C81.4859 186.933 81.5992 186.333 81.5992 185.68C81.5992 185.013 81.4859 184.42 81.2592 183.9C81.0326 183.367 80.6992 182.947 80.2592 182.64C79.8192 182.333 79.2526 182.18 78.5592 182.18C77.8392 182.18 77.2659 182.347 76.8392 182.68C76.4126 183 76.0992 183.433 75.8992 183.98C75.7126 184.513 75.6192 185.107 75.6192 185.76C75.6192 186.427 75.7192 187.027 75.9192 187.56C76.1192 188.093 76.4326 188.513 76.8592 188.82C77.2992 189.127 77.8726 189.28 78.5792 189.28ZM92.0741 191V176.86H101.774V178.8H94.1941V183.54H100.734V185.5H94.1941V191H92.0741ZM107.878 191.12C106.785 191.12 105.858 190.9 105.098 190.46C104.338 190.007 103.758 189.373 103.358 188.56C102.971 187.747 102.778 186.807 102.778 185.74C102.778 184.66 102.978 183.72 103.378 182.92C103.778 182.107 104.358 181.473 105.118 181.02C105.878 180.553 106.805 180.32 107.898 180.32C108.991 180.32 109.918 180.553 110.678 181.02C111.438 181.473 112.011 182.107 112.398 182.92C112.785 183.733 112.978 184.68 112.978 185.76C112.978 186.813 112.778 187.747 112.378 188.56C111.991 189.373 111.418 190.007 110.658 190.46C109.911 190.9 108.985 191.12 107.878 191.12ZM107.878 189.28C108.598 189.28 109.178 189.12 109.618 188.8C110.071 188.48 110.405 188.053 110.618 187.52C110.831 186.973 110.938 186.38 110.938 185.74C110.938 185.1 110.831 184.513 110.618 183.98C110.405 183.447 110.071 183.02 109.618 182.7C109.178 182.367 108.598 182.2 107.878 182.2C107.171 182.2 106.591 182.367 106.138 182.7C105.685 183.02 105.351 183.447 105.138 183.98C104.938 184.513 104.838 185.1 104.838 185.74C104.838 186.393 104.938 186.987 105.138 187.52C105.351 188.053 105.685 188.48 106.138 188.8C106.591 189.12 107.171 189.28 107.878 189.28ZM115.092 191V180.46H117.032L117.132 181.98C117.399 181.567 117.705 181.24 118.052 181C118.399 180.76 118.779 180.587 119.192 180.48C119.605 180.373 120.039 180.32 120.492 180.32C120.612 180.32 120.725 180.32 120.832 180.32C120.939 180.32 121.039 180.32 121.132 180.32V182.3H120.492C119.732 182.3 119.099 182.453 118.592 182.76C118.099 183.067 117.732 183.493 117.492 184.04C117.265 184.587 117.152 185.213 117.152 185.92V191H115.092ZM124.89 191L121.61 180.46H123.91L126.23 188.84L128.67 180.46H131.25L133.69 188.84L135.97 180.46H138.27L134.99 191H132.37L129.93 182.94L127.51 191H124.89ZM143.061 191.12C142.581 191.12 142.115 191.06 141.661 190.94C141.221 190.807 140.828 190.613 140.481 190.36C140.135 190.093 139.855 189.767 139.641 189.38C139.441 188.98 139.341 188.513 139.341 187.98C139.341 187.34 139.461 186.813 139.701 186.4C139.955 185.973 140.288 185.647 140.701 185.42C141.115 185.18 141.588 185.013 142.121 184.92C142.668 184.813 143.235 184.76 143.821 184.76H146.401C146.401 184.24 146.321 183.787 146.161 183.4C146.001 183 145.748 182.693 145.401 182.48C145.068 182.253 144.621 182.14 144.061 182.14C143.728 182.14 143.408 182.18 143.101 182.26C142.808 182.327 142.555 182.44 142.341 182.6C142.128 182.76 141.981 182.973 141.901 183.24H139.741C139.821 182.733 140.001 182.3 140.281 181.94C140.561 181.567 140.908 181.26 141.321 181.02C141.735 180.78 142.175 180.607 142.641 180.5C143.121 180.38 143.608 180.32 144.101 180.32C145.621 180.32 146.715 180.767 147.381 181.66C148.061 182.54 148.401 183.753 148.401 185.3V191H146.621L146.541 189.66C146.235 190.073 145.868 190.387 145.441 190.6C145.028 190.813 144.615 190.953 144.201 191.02C143.788 191.087 143.408 191.12 143.061 191.12ZM143.381 189.38C143.981 189.38 144.508 189.28 144.961 189.08C145.415 188.867 145.768 188.567 146.021 188.18C146.275 187.78 146.401 187.313 146.401 186.78V186.34H144.521C144.135 186.34 143.755 186.353 143.381 186.38C143.021 186.393 142.688 186.447 142.381 186.54C142.088 186.62 141.848 186.76 141.661 186.96C141.488 187.16 141.401 187.447 141.401 187.82C141.401 188.18 141.495 188.473 141.681 188.7C141.868 188.927 142.115 189.1 142.421 189.22C142.728 189.327 143.048 189.38 143.381 189.38ZM150.873 191V180.46H152.813L152.913 181.98C153.18 181.567 153.487 181.24 153.833 181C154.18 180.76 154.56 180.587 154.973 180.48C155.387 180.373 155.82 180.32 156.273 180.32C156.393 180.32 156.507 180.32 156.613 180.32C156.72 180.32 156.82 180.32 156.913 180.32V182.3H156.273C155.513 182.3 154.88 182.453 154.373 182.76C153.88 183.067 153.513 183.493 153.273 184.04C153.047 184.587 152.933 185.213 152.933 185.92V191H150.873ZM162.536 191.12C161.482 191.12 160.609 190.887 159.916 190.42C159.236 189.94 158.722 189.293 158.376 188.48C158.042 187.667 157.876 186.753 157.876 185.74C157.876 184.713 158.049 183.793 158.396 182.98C158.742 182.153 159.269 181.507 159.976 181.04C160.682 180.56 161.576 180.32 162.656 180.32C163.056 180.32 163.456 180.367 163.856 180.46C164.269 180.553 164.649 180.7 164.996 180.9C165.356 181.087 165.662 181.34 165.916 181.66V176.86H167.976V191H165.996L165.916 189.56C165.676 189.92 165.376 190.22 165.016 190.46C164.669 190.687 164.282 190.853 163.856 190.96C163.429 191.067 162.989 191.12 162.536 191.12ZM162.876 189.28C163.556 189.28 164.116 189.113 164.556 188.78C165.009 188.447 165.349 188.007 165.576 187.46C165.802 186.913 165.916 186.32 165.916 185.68C165.916 185.027 165.802 184.44 165.576 183.92C165.362 183.387 165.029 182.967 164.576 182.66C164.136 182.34 163.569 182.18 162.876 182.18C162.156 182.18 161.582 182.347 161.156 182.68C160.729 183 160.416 183.433 160.216 183.98C160.029 184.527 159.936 185.127 159.936 185.78C159.936 186.26 159.989 186.713 160.096 187.14C160.202 187.553 160.369 187.927 160.596 188.26C160.836 188.58 161.142 188.833 161.516 189.02C161.889 189.193 162.342 189.28 162.876 189.28Z" fill="#4A4A4A"/>
<defs>
<linearGradient id="paint0_linear_3742_45802" x1="9" y1="87.7942" x2="178.588" y2="87.7942" gradientUnits="userSpaceOnUse">
<stop stop-color="#213679"/>
<stop offset="1" stop-color="#0A7AC0"/>
</linearGradient>
<clipPath id="clip0_3742_45802">
<rect x="9" y="3" width="169.588" height="169.588" rx="32" fill="white"/>
</clipPath>
<clipPath id="clip1_3742_45802">
<rect width="149" height="148" fill="white" transform="translate(8.59473 24.5957)"/>
</clipPath>
</defs>
</svg>
