<svg width="184" height="210" viewBox="0 0 184 210" fill="none" xmlns="http://www.w3.org/2000/svg">
<g clip-path="url(#clip0_3742_45788)">
<rect x="8" y="3" width="169.588" height="169.588" rx="32" fill="url(#paint0_linear_3742_45788)"/>
<g clip-path="url(#clip1_3742_45788)">
<path d="M97.2672 109.449C104.116 110.954 111.109 111.708 118.122 111.697C120.875 111.697 123.717 111.935 124.688 114.946C125.767 118.314 126.51 121.88 123.153 124.723C121.178 126.436 118.787 127.598 116.221 128.091C109.847 129.294 103.323 129.482 96.8909 128.645C96.0789 128.546 94.7718 128.229 94.6529 129.458C94.5638 130.448 95.762 130.448 96.5542 130.577C102.124 131.705 107.84 131.916 113.478 131.201C117.855 130.557 118.726 131.647 118.082 135.995C117.36 140.948 114.745 143.791 109.863 145.247C103.1 147.277 96.4453 149.665 89.4541 150.863C81.2646 152.27 74.3724 149.219 70.0252 141.948C67.301 137.607 65.9962 132.524 66.2919 127.407C66.3969 126.188 66.2583 124.96 65.8843 123.796C65.5103 122.631 64.9083 121.552 64.1133 120.622C62.4101 118.482 62.2912 115.382 62.925 112.777C63.9945 108.448 62.6873 104.981 60.3899 101.465C59.3751 100.087 58.8023 98.4338 58.7475 96.7234C58.6927 95.013 59.1584 93.3262 60.083 91.8863C62.311 88.2412 63.3409 84.6653 61.9744 80.2079C60.5583 75.5919 63.4795 71.5109 68.9062 69.1138C73.0752 67.2516 77.6205 66.8256 82.0172 65.7955C90.0383 63.9333 98.2377 63.3488 106.417 62.9229C111.21 62.6852 116.161 62.6455 120.825 64.171C127.114 66.2313 129.183 76.9193 124.064 81.0102C121.281 83.2488 117.637 83.2488 114.26 83.8927C107.932 85.1011 101.387 84.9526 95.1778 86.8643C98.4654 88.0232 101.822 87.8548 105.219 87.6567C110.953 87.2506 116.726 86.894 122.44 87.7954C129.451 88.9048 131.085 94.3825 129.639 100.247C128.025 106.764 127.193 106.744 119.736 107.646C113.349 108.418 106.863 108.151 100.495 108.22C99.8976 108.138 99.2887 108.208 98.7247 108.423C98.1607 108.637 97.6595 108.99 97.2672 109.449Z" fill="white"/>
<path d="M49.0517 172.209C42.4664 172.15 35.8911 172.368 29.3158 172.556C24.3051 172.705 19.2845 172.368 14.2737 172.18C11.3822 172.081 8.18365 168.743 8.15394 165.82C8.15394 161.284 8.22326 156.747 8.09452 152.22C8.03511 150.031 8.94615 148.952 10.9366 148.258C19.9281 145.029 28.9098 141.79 37.9509 138.699C44.3875 136.51 50.8242 134.133 56.3598 129.893C57.2605 129.313 58.2157 128.822 59.2117 128.427C62.0043 127.041 62.6974 127.358 63.044 130.409C63.7033 135.643 65.5714 140.652 68.5004 145.039C72.095 150.635 77.3434 153.439 83.9385 153.845C84.8793 153.904 86.1072 153.587 86.3944 154.905C86.6419 156.054 85.4041 156.361 84.7505 156.807C77.907 161.186 71.33 165.969 65.0543 171.13C64.1793 171.877 63.0547 172.266 61.9052 172.219C57.6075 172.19 53.3395 172.209 49.0517 172.209Z" fill="white"/>
<path d="M108.22 57.9108C108.252 58.1574 108.228 58.408 108.15 58.6442C108.073 58.8805 107.943 59.0963 107.771 59.2759C107.599 59.4555 107.389 59.5942 107.157 59.682C106.924 59.7697 106.675 59.8042 106.427 59.7829C100.027 60.0798 93.6469 60.7213 87.3153 61.7045C85.2457 62.0413 84.5723 61.2291 84.9684 59.139C86.3678 50.9721 87.195 42.7173 87.444 34.4349C87.6421 30.0369 87.9095 25.5993 89.6226 21.3994C89.9748 20.2556 90.697 19.2612 91.6757 18.5727C92.6545 17.8842 93.8342 17.5405 95.0294 17.5957C101.961 17.4967 104.793 19.8442 106.378 26.57C107.698 32.084 108.333 37.7397 108.269 43.4092C108.46 48.2774 108.292 53.0074 108.22 57.9108Z" fill="white"/>
</g>
</g>
<rect x="25.667" y="158.5" width="132" height="51" rx="25.5" fill="white"/>
<rect x="25.667" y="158.5" width="132" height="51" rx="25.5" stroke="#D1D1D1"/>
<path d="M42.827 191V176.86H52.567V178.8H44.947V183.04H51.687V184.96H44.947V189.06H52.567V191H42.827ZM53.6721 191L57.4121 185.62L53.8521 180.46H56.3121L58.7921 184.24L61.1921 180.46H63.5721L60.0321 185.68L63.8321 191H61.3921L58.6721 187.16L55.9921 191H53.6721ZM69.7023 191.12C68.5956 191.12 67.669 190.893 66.9223 190.44C66.189 189.987 65.6356 189.36 65.2623 188.56C64.9023 187.747 64.7223 186.813 64.7223 185.76C64.7223 184.72 64.909 183.793 65.2823 182.98C65.669 182.153 66.2423 181.507 67.0023 181.04C67.7756 180.56 68.729 180.32 69.8623 180.32C70.6356 180.32 71.3223 180.453 71.9223 180.72C72.5223 180.973 73.009 181.353 73.3823 181.86C73.769 182.353 74.0223 182.973 74.1423 183.72H72.0823C71.909 183.173 71.6156 182.78 71.2023 182.54C70.8023 182.3 70.329 182.18 69.7823 182.18C69.049 182.18 68.4623 182.353 68.0223 182.7C67.5956 183.047 67.2823 183.493 67.0823 184.04C66.8823 184.587 66.7823 185.16 66.7823 185.76C66.7823 186.387 66.8823 186.967 67.0823 187.5C67.2956 188.033 67.6156 188.467 68.0423 188.8C68.4823 189.12 69.0556 189.28 69.7623 189.28C70.2956 189.28 70.789 189.167 71.2423 188.94C71.6956 188.7 71.989 188.3 72.1223 187.74H74.2423C74.1223 188.513 73.8423 189.153 73.4023 189.66C72.9623 190.153 72.4156 190.52 71.7623 190.76C71.1223 191 70.4356 191.12 69.7023 191.12ZM80.8756 191.12C79.7689 191.12 78.8423 190.893 78.0956 190.44C77.3489 189.987 76.7823 189.36 76.3956 188.56C76.0223 187.747 75.8356 186.813 75.8356 185.76C75.8356 184.693 76.0289 183.753 76.4156 182.94C76.8156 182.127 77.3889 181.487 78.1356 181.02C78.8956 180.553 79.8089 180.32 80.8756 180.32C81.6889 180.32 82.3956 180.473 82.9956 180.78C83.5956 181.073 84.0889 181.473 84.4756 181.98C84.8756 182.487 85.1689 183.053 85.3556 183.68C85.5423 184.293 85.6223 184.933 85.5956 185.6C85.5956 185.747 85.5889 185.887 85.5756 186.02C85.5623 186.153 85.5489 186.293 85.5356 186.44H77.9156C77.9556 186.973 78.0889 187.46 78.3156 187.9C78.5556 188.34 78.8889 188.693 79.3156 188.96C79.7423 189.213 80.2689 189.34 80.8956 189.34C81.2423 189.34 81.5756 189.3 81.8956 189.22C82.2289 189.127 82.5223 188.987 82.7756 188.8C83.0423 188.6 83.2289 188.347 83.3356 188.04H85.4156C85.2423 188.747 84.9289 189.333 84.4756 189.8C84.0356 190.253 83.4956 190.587 82.8556 190.8C82.2289 191.013 81.5689 191.12 80.8756 191.12ZM77.9556 184.8H83.5556C83.5423 184.28 83.4223 183.82 83.1956 183.42C82.9689 183.007 82.6556 182.687 82.2556 182.46C81.8556 182.22 81.3756 182.1 80.8156 182.1C80.2023 182.1 79.6889 182.227 79.2756 182.48C78.8756 182.733 78.5623 183.067 78.3356 183.48C78.1223 183.88 77.9956 184.32 77.9556 184.8ZM87.72 191V176.86H89.78V191H87.72ZM92.3293 191V176.86H94.3893V191H92.3293ZM101.579 191.12C100.472 191.12 99.5454 190.893 98.7987 190.44C98.052 189.987 97.4854 189.36 97.0987 188.56C96.7254 187.747 96.5387 186.813 96.5387 185.76C96.5387 184.693 96.732 183.753 97.1187 182.94C97.5187 182.127 98.092 181.487 98.8387 181.02C99.5987 180.553 100.512 180.32 101.579 180.32C102.392 180.32 103.099 180.473 103.699 180.78C104.299 181.073 104.792 181.473 105.179 181.98C105.579 182.487 105.872 183.053 106.059 183.68C106.245 184.293 106.325 184.933 106.299 185.6C106.299 185.747 106.292 185.887 106.279 186.02C106.265 186.153 106.252 186.293 106.239 186.44H98.6187C98.6587 186.973 98.792 187.46 99.0187 187.9C99.2587 188.34 99.592 188.693 100.019 188.96C100.445 189.213 100.972 189.34 101.599 189.34C101.945 189.34 102.279 189.3 102.599 189.22C102.932 189.127 103.225 188.987 103.479 188.8C103.745 188.6 103.932 188.347 104.039 188.04H106.119C105.945 188.747 105.632 189.333 105.179 189.8C104.739 190.253 104.199 190.587 103.559 190.8C102.932 191.013 102.272 191.12 101.579 191.12ZM98.6587 184.8H104.259C104.245 184.28 104.125 183.82 103.899 183.42C103.672 183.007 103.359 182.687 102.959 182.46C102.559 182.22 102.079 182.1 101.519 182.1C100.905 182.1 100.392 182.227 99.9787 182.48C99.5787 182.733 99.2654 183.067 99.0387 183.48C98.8254 183.88 98.6987 184.32 98.6587 184.8ZM108.423 191V180.46H110.383L110.483 181.94C110.75 181.553 111.07 181.247 111.443 181.02C111.816 180.78 112.216 180.607 112.643 180.5C113.07 180.38 113.483 180.32 113.883 180.32C114.896 180.32 115.69 180.54 116.263 180.98C116.85 181.407 117.263 181.987 117.503 182.72C117.756 183.44 117.883 184.26 117.883 185.18V191H115.803V185.6C115.803 185.173 115.776 184.753 115.723 184.34C115.67 183.927 115.556 183.56 115.383 183.24C115.223 182.907 114.99 182.647 114.683 182.46C114.376 182.26 113.963 182.16 113.443 182.16C112.803 182.16 112.263 182.333 111.823 182.68C111.383 183.027 111.05 183.493 110.823 184.08C110.596 184.667 110.483 185.327 110.483 186.06V191H108.423ZM124.917 191.12C123.81 191.12 122.884 190.893 122.137 190.44C121.404 189.987 120.85 189.36 120.477 188.56C120.117 187.747 119.937 186.813 119.937 185.76C119.937 184.72 120.124 183.793 120.497 182.98C120.884 182.153 121.457 181.507 122.217 181.04C122.99 180.56 123.944 180.32 125.077 180.32C125.85 180.32 126.537 180.453 127.137 180.72C127.737 180.973 128.224 181.353 128.597 181.86C128.984 182.353 129.237 182.973 129.357 183.72H127.297C127.124 183.173 126.83 182.78 126.417 182.54C126.017 182.3 125.544 182.18 124.997 182.18C124.264 182.18 123.677 182.353 123.237 182.7C122.81 183.047 122.497 183.493 122.297 184.04C122.097 184.587 121.997 185.16 121.997 185.76C121.997 186.387 122.097 186.967 122.297 187.5C122.51 188.033 122.83 188.467 123.257 188.8C123.697 189.12 124.27 189.28 124.977 189.28C125.51 189.28 126.004 189.167 126.457 188.94C126.91 188.7 127.204 188.3 127.337 187.74H129.457C129.337 188.513 129.057 189.153 128.617 189.66C128.177 190.153 127.63 190.52 126.977 190.76C126.337 191 125.65 191.12 124.917 191.12ZM136.09 191.12C134.984 191.12 134.057 190.893 133.31 190.44C132.564 189.987 131.997 189.36 131.61 188.56C131.237 187.747 131.05 186.813 131.05 185.76C131.05 184.693 131.244 183.753 131.63 182.94C132.03 182.127 132.604 181.487 133.35 181.02C134.11 180.553 135.024 180.32 136.09 180.32C136.904 180.32 137.61 180.473 138.21 180.78C138.81 181.073 139.304 181.473 139.69 181.98C140.09 182.487 140.384 183.053 140.57 183.68C140.757 184.293 140.837 184.933 140.81 185.6C140.81 185.747 140.804 185.887 140.79 186.02C140.777 186.153 140.764 186.293 140.75 186.44H133.13C133.17 186.973 133.304 187.46 133.53 187.9C133.77 188.34 134.104 188.693 134.53 188.96C134.957 189.213 135.484 189.34 136.11 189.34C136.457 189.34 136.79 189.3 137.11 189.22C137.444 189.127 137.737 188.987 137.99 188.8C138.257 188.6 138.444 188.347 138.55 188.04H140.63C140.457 188.747 140.144 189.333 139.69 189.8C139.25 190.253 138.71 190.587 138.07 190.8C137.444 191.013 136.784 191.12 136.09 191.12ZM133.17 184.8H138.77C138.757 184.28 138.637 183.82 138.41 183.42C138.184 183.007 137.87 182.687 137.47 182.46C137.07 182.22 136.59 182.1 136.03 182.1C135.417 182.1 134.904 182.227 134.49 182.48C134.09 182.733 133.777 183.067 133.55 183.48C133.337 183.88 133.21 184.32 133.17 184.8Z" fill="#4A4A4A"/>
<defs>
<linearGradient id="paint0_linear_3742_45788" x1="8" y1="87.7942" x2="177.588" y2="87.7942" gradientUnits="userSpaceOnUse">
<stop stop-color="#213679"/>
<stop offset="1" stop-color="#0A7AC0"/>
</linearGradient>
<clipPath id="clip0_3742_45788">
<rect x="8" y="3" width="169.588" height="169.588" rx="32" fill="white"/>
</clipPath>
<clipPath id="clip1_3742_45788">
<rect width="122" height="155" fill="white" transform="translate(8.09473 17.5957)"/>
</clipPath>
</defs>
</svg>
